# xmcd
#
# Track frame offsets: 
#        150
#        13270
#        39143
#        72818
#        96468
#        110792
#        139058
#        171889
#        190545
#        206946
#
# Disc length: 3158 seconds
#
# Revision: 11
# Processed by: cddbd v1.5.2PL0 Copyright (c) Steve Scherf et al.
# Submitted via: ExactAudioCopy v1.0b3
#
DISCID=8e0c540a
DTITLE=Roy Buchanan - Messiah on Guitar
DYEAR=2007
DGENRE=Instrumental/Guitar
TTITLE0=Short Fuse (instrumental)
TTITLE1=Green Onions (instrumental)
TTITLE2=When A Guitar Plays The Blues
TTITLE3=Pressure (insrtumental)
TTITLE4=Peter Gunn (insrtumental)
TTITLE5=Chicago Smoke Shop (instrumental)
TTITLE6=Blues in E (instrumental)
TTITLE7=Hey Joe
TTITLE8=Foxy lady
TTITLE9=The Messiah Will Come Again (instrumental)
EXTD=YEAR: 2000
EXTT0=
EXTT1=
EXTT2=
EXTT3=
EXTT4=
EXTT5=
EXTT6=
EXTT7=
EXTT8=
EXTT9=
PLAYORDER=
